<svg width="14" height="23" viewBox="0 0 14 23" fill="none" xmlns="http://www.w3.org/2000/svg">
<path d="M13.7731 1.10185C13.7731 0.413194 13.2222 0 12.6713 0H12.3958C10.0544 0 8.26389 2.6169 8.26389 6.47338V7.71296C8.26389 9.09028 8.95255 10.3299 10.1921 11.0185C9.77893 12.6713 9.6412 14.4618 9.6412 14.4618V19.9711C9.6412 21.0729 10.6053 22.037 11.7072 22.037C12.809 22.037 13.7731 21.0729 13.7731 19.9711V14.4618C13.7731 13.9109 13.6354 12.5336 13.36 11.294C13.6354 11.0185 13.7731 10.7431 13.7731 10.3299V1.10185ZM5.78472 0H5.50926V4.8206C5.50926 5.2338 5.2338 5.50926 4.8206 5.50926C4.40741 5.50926 4.13194 5.2338 4.13194 4.8206V0.688657C4.13194 0.275463 3.85648 0 3.44329 0C3.03009 0 2.75463 0.275463 2.75463 0.688657V4.8206C2.75463 5.2338 2.47917 5.50926 2.06597 5.50926C1.65278 5.50926 1.37731 5.2338 1.37731 4.8206V0H1.10185C0.550926 0 0 0.550926 0 1.10185V6.19792C0 7.57523 0.826389 8.81481 2.06597 9.36574C1.51505 11.5694 1.37731 14.4618 1.37731 14.4618V19.9711C1.37731 21.0729 2.34144 22.037 3.44329 22.037C4.54514 22.037 5.50926 21.0729 5.50926 19.9711V14.4618C5.50926 13.7731 5.37153 11.294 4.95833 9.36574C6.06018 8.81481 6.88657 7.57523 6.88657 6.19792V1.10185C6.88657 0.550926 6.33565 0 5.78472 0Z" fill="#7B5EEA"/>
</svg>
