<svg width="23" height="23" viewBox="0 0 23 23" fill="none" xmlns="http://www.w3.org/2000/svg">
<path d="M22.037 1.37731C22.037 6.03006 18.7401 9.91236 14.3585 10.8205C14.0185 8.31984 12.8951 6.06879 11.238 4.32563C12.964 1.72164 15.9209 0 19.2824 0H20.6597C21.4215 0 22.037 0.615488 22.037 1.37731ZM0 4.13194C0 3.37012 0.615488 2.75463 1.37731 2.75463H2.75463C8.07881 2.75463 12.3958 7.07165 12.3958 12.3958V20.6597C12.3958 21.4215 11.7803 22.037 11.0185 22.037C10.2567 22.037 9.6412 21.4215 9.6412 20.6597V13.7731C4.31702 13.7731 0 9.45613 0 4.13194Z" fill="#7B5EEA"/>
</svg>
