<svg width="19" height="18" viewBox="0 0 19 18" fill="none" xmlns="http://www.w3.org/2000/svg">
<path d="M3.67284 14.6914L1.56096 16.8032C1.27019 17.094 0.937188 17.1592 0.561946 16.9988C0.186704 16.8384 -0.000610644 16.5513 1.49546e-06 16.1375V1.83642C1.49546e-06 1.3314 0.179971 0.899234 0.539909 0.539907C0.899847 0.180581 1.33202 0.00061214 1.83642 0H16.5278C17.0328 0 17.4653 0.179969 17.8252 0.539907C18.1851 0.899846 18.3648 1.33202 18.3642 1.83642V12.8549C18.3642 13.36 18.1845 13.7924 17.8252 14.1524C17.4659 14.5123 17.0334 14.692 16.5278 14.6914H3.67284ZM9.1821 11.9367C9.44226 11.9367 9.66049 11.8486 9.83678 11.6723C10.0131 11.496 10.1009 11.2781 10.1003 11.0185C10.0997 10.759 10.0115 10.541 9.83587 10.3648C9.66018 10.1885 9.44226 10.1003 9.1821 10.1003C8.92194 10.1003 8.70402 10.1885 8.52833 10.3648C8.35265 10.541 8.2645 10.759 8.26389 11.0185C8.26328 11.2781 8.35143 11.4963 8.52833 11.6732C8.70524 11.8501 8.92317 11.938 9.1821 11.9367ZM9.1821 8.26389C9.44226 8.26389 9.66049 8.17574 9.83678 7.99944C10.0131 7.82315 10.1009 7.60523 10.1003 7.34568V3.67284C10.1003 3.41268 10.0122 3.19476 9.83587 3.01907C9.65957 2.84339 9.44165 2.75524 9.1821 2.75463C8.92255 2.75402 8.70463 2.84217 8.52833 3.01907C8.35204 3.19598 8.26389 3.4139 8.26389 3.67284V7.34568C8.26389 7.60584 8.35204 7.82407 8.52833 8.00036C8.70463 8.17666 8.92255 8.2645 9.1821 8.26389Z" fill="#7B5EEA"/>
</svg>
